<?xml version="1.0" standalone="no"?>
<!DOCTYPE svg PUBLIC "-//W3C//DTD SVG 20010904//EN"
 "http://www.w3.org/TR/2001/REC-SVG-20010904/DTD/svg10.dtd">
<svg version="1.0" xmlns="http://www.w3.org/2000/svg"
 width="500.000000pt" height="500.000000pt" viewBox="0 0 500.000000 500.000000"
 preserveAspectRatio="xMidYMid meet">
<metadata>
Created by potrace 1.14, written by Peter Selinger 2001-2017
</metadata>
<g transform="translate(0.000000,500.000000) scale(0.100000,-0.100000)"
fill="#000000" stroke="none">
<path d="M3095 4920 c-92 -14 -197 -57 -273 -110 -148 -104 -184 -188 -150
-354 18 -93 28 -91 -283 -77 -185 8 -267 15 -275 24 -7 6 -20 39 -29 72 -44
155 -113 225 -269 270 -43 13 -82 16 -145 13 -211 -12 -325 -116 -347 -318 -5
-53 4 -95 73 -302 3 -12 -10 -30 -43 -60 -27 -23 -80 -75 -119 -114 -38 -40
-80 -75 -92 -78 -37 -11 -126 -106 -231 -247 -81 -109 -122 -154 -207 -225
-116 -98 -139 -112 -205 -129 -39 -10 -45 -15 -48 -41 -3 -33 14 -74 64 -154
40 -63 97 -204 92 -229 -2 -10 -66 -47 -166 -97 -189 -93 -221 -121 -320 -271
-132 -199 -134 -205 -112 -269 5 -16 41 -181 79 -367 l70 -339 48 -80 c88
-146 150 -200 350 -303 83 -43 281 -115 315 -115 10 0 28 12 42 27 l24 26 182
-58 182 -58 44 22 c25 11 54 21 65 21 11 0 110 -43 220 -95 109 -52 206 -95
216 -95 10 0 30 14 44 32 l26 31 15 -24 c87 -139 89 -140 110 -137 13 2 32 20
48 48 45 78 71 59 121 -90 19 -56 23 -91 25 -248 2 -100 6 -187 9 -192 15 -24
72 0 195 83 97 65 174 139 272 260 45 56 86 97 97 97 19 0 55 -36 129 -131 94
-121 251 -261 404 -362 79 -51 152 -97 162 -100 11 -5 28 -1 42 8 48 31 146
243 179 387 13 59 16 112 13 275 -1 111 0 205 4 209 4 4 17 -15 29 -42 92
-209 99 -220 138 -214 47 6 217 171 319 308 79 106 114 189 120 279 3 40 7 73
9 73 3 0 28 -20 56 -43 63 -53 80 -60 113 -45 50 23 193 303 221 431 11 52 14
105 10 192 -7 147 -30 229 -92 320 -25 36 -45 71 -45 78 0 7 14 26 31 43 98
93 189 261 264 488 65 196 76 256 82 476 5 193 5 195 -19 230 -56 84 -363 258
-717 408 -322 136 -342 144 -433 176 -43 16 -78 32 -78 37 0 5 12 44 27 86 37
108 39 255 4 358 -20 61 -33 79 -95 140 -118 116 -264 178 -443 189 -48 2
-115 1 -148 -4z m-533 -680 c365 -35 897 -195 1468 -442 411 -178 396 -158
394 -498 -1 -205 -3 -222 -36 -378 -26 -123 -40 -169 -57 -185 l-21 -21 -54
53 c-30 29 -60 51 -67 49 -10 -3 -14 -33 -15 -119 -1 -124 -20 -214 -74 -356
-37 -96 -161 -322 -184 -335 -24 -13 -42 5 -51 50 -9 49 -25 78 -80 145 -32
39 -53 57 -69 57 -22 0 -23 -5 -29 -92 -9 -136 -38 -236 -112 -383 -89 -179
-216 -369 -377 -565 -155 -188 -179 -213 -204 -208 -10 2 -34 31 -54 65 -49
88 -101 146 -170 193 -78 53 -132 75 -227 95 -43 9 -82 21 -88 26 -5 6 -10 56
-10 112 0 92 -3 108 -29 160 -15 32 -47 77 -69 100 l-42 42 -6 -140 c-7 -147
-19 -198 -72 -300 -82 -160 -189 -219 -397 -218 -128 1 -212 19 -499 107 -342
106 -480 136 -619 136 -65 0 -74 -3 -130 -40 -33 -22 -70 -40 -82 -40 -32 0
-100 71 -100 105 0 61 101 113 265 136 112 15 282 0 795 -73 263 -37 302 -40
366 -31 87 13 176 52 200 88 26 40 30 135 9 206 -23 74 -12 93 35 66 l29 -18
-13 39 c-36 102 -135 246 -223 322 -52 46 -189 110 -232 109 l-36 -1 29 -8
c16 -5 39 -19 52 -31 l24 -22 -23 -16 c-17 -13 -49 -16 -152 -16 -187 0 -207
-13 -356 -223 -228 -322 -235 -327 -429 -327 -83 1 -152 7 -206 19 l-81 18
-55 -31 c-30 -17 -64 -31 -75 -31 -56 0 -109 136 -116 300 -2 31 1 35 26 38
16 2 43 -6 63 -17 57 -34 73 -28 185 70 189 165 215 192 238 253 24 64 28 131
9 123 -238 -93 -356 -141 -410 -166 -36 -17 -80 -31 -97 -31 -38 0 -78 35 -90
77 -9 29 -5 40 38 105 93 143 252 252 562 388 127 56 219 120 219 152 0 11
-24 51 -54 87 -29 36 -63 85 -75 109 l-22 43 -19 -23 -18 -23 -37 20 c-42 22
-117 103 -112 119 2 6 40 30 85 52 45 23 103 58 130 78 86 63 440 434 528 552
45 61 90 114 98 117 22 9 29 -13 16 -47 -5 -15 -10 -29 -10 -31 0 -2 42 25 93
61 115 82 215 133 337 172 222 70 440 94 672 72z m-978 -2165 c82 -39 91 -177
11 -180 -17 -1 -31 -10 -39 -26 -10 -19 -19 -24 -53 -24 -39 0 -43 -2 -43 -25
0 -11 40 -50 52 -50 4 0 18 11 30 25 22 25 62 33 73 15 4 -6 27 -10 52 -8 l45
3 29 -70 c44 -107 37 -157 -25 -179 -33 -11 -508 22 -568 40 -28 8 -21 30 30
93 26 33 76 112 111 176 73 135 110 181 166 206 49 23 87 24 129 4z"/>
<path d="M1763 3341 c-24 -11 -90 -65 -149 -121 -157 -149 -291 -239 -356
-240 -44 0 -81 40 -88 96 l-5 49 -38 -36 c-61 -61 -46 -109 45 -149 29 -13 67
-26 83 -29 43 -10 46 -45 5 -66 -43 -22 -35 -45 25 -66 69 -24 79 -23 92 11
27 72 79 42 248 -145 69 -77 134 -143 144 -147 43 -15 224 -26 284 -17 75 12
101 28 162 99 67 79 151 251 139 285 -7 17 -37 20 -65 4 -33 -17 -52 -2 -91
69 -48 88 -139 176 -199 192 -49 13 -89 45 -89 71 0 21 11 25 83 34 32 4 57
11 57 16 0 11 -57 53 -108 78 -63 32 -128 36 -179 12z m14 -223 c12 -6 27 -25
33 -42 9 -27 8 -33 -10 -48 -23 -18 -227 -88 -258 -88 -44 0 -55 53 -21 101
31 44 85 81 137 94 46 12 69 9 119 -17z"/>
</g>
</svg>
